<svg width="97" height="97" viewBox="0 0 97 97" fill="none" xmlns="http://www.w3.org/2000/svg">
<mask id="mask0_201_160" style="mask-type:luminance" maskUnits="userSpaceOnUse" x="0" y="-1" width="97" height="98">
<path d="M0 -1V96.0517H97V-1H0Z" fill="white"/>
</mask>
<g mask="url(#mask0_201_160)">
<path d="M66.6914 27.2326C66.9176 26.7152 67.2407 26.3595 67.6285 26.1654C68.0485 25.9714 68.824 25.8744 69.9872 25.8744H70.9566V23.6106H62.5555V23.6429H62.5232L50.2124 57.1793L48.7261 53.3308L37.6754 23.6106H25.817V25.8744H27.1095C28.2727 25.8744 29.0805 25.9714 29.5329 26.1978C30.0175 26.4242 30.3407 26.7476 30.5345 27.2003C30.7284 27.6207 30.8253 28.5262 30.8253 29.9169V54.3981C30.8253 55.8533 30.6961 56.8235 30.4699 57.3086C30.2437 57.8261 29.856 58.1818 29.3067 58.4729C28.7574 58.7316 27.8527 58.8609 26.5925 58.8609H25.817V61.1247H39.0002V58.8609H38.1601C36.9 58.8609 35.9952 58.7316 35.5106 58.4729C35.0259 58.2141 34.6704 57.8261 34.412 57.3733C34.1858 56.8882 34.0565 55.9827 34.0565 54.6244V28.0411L46.3996 61.1247H49.0815H52.1834L61.2631 36.8376V54.3981C61.2631 55.2712 61.2307 55.9827 61.1661 56.5325C61.1338 56.9206 61.0692 57.244 60.9722 57.438C60.8753 57.6644 60.7784 57.8584 60.6168 58.0201C60.5845 58.0524 60.5522 58.0848 60.5522 58.1171C60.5199 58.1495 60.4876 58.1495 60.4553 58.1818C60.2291 58.3758 59.9706 58.5375 59.6475 58.6346C59.6152 58.6669 59.5828 58.6669 59.5505 58.6669C59.2597 58.7639 58.9043 58.7963 58.4519 58.8286C58.1934 58.8609 57.9026 58.8609 57.6118 58.8609H56.6425V61.1247H70.9566V58.8609H69.9872C69.1471 58.8609 68.5009 58.7963 68.0485 58.6669C67.9839 58.6669 67.9516 58.6669 67.9193 58.6346C67.6285 58.5375 67.37 58.3758 67.1438 58.1818C67.1115 58.1495 67.0792 58.1495 67.0469 58.1171C67.0145 58.0848 66.9822 58.0524 66.9822 58.0201C66.8853 57.9231 66.8207 57.8261 66.7561 57.6967C66.6914 57.5997 66.6591 57.535 66.6268 57.438C66.5622 57.3086 66.5299 57.1793 66.4976 56.9852C66.4006 56.5325 66.3683 55.8857 66.336 55.0449C66.336 54.8185 66.336 54.6244 66.336 54.3981V29.6581C66.336 28.5262 66.4653 27.7177 66.6914 27.2326Z" fill="#231F20"/>
<path d="M80.812 29.4641C80.1981 28.785 77.7101 29.9816 74.5435 34.9295C71.377 39.8452 66.6272 42.9822 65.3024 43.2085C63.9776 43.4349 60.1002 43.9523 60.1002 42.206C60.1002 40.492 64.7531 41.2681 67.7581 39.7158C70.7308 38.1959 71.1508 36.2231 71.1831 34.6385C71.2477 33.0538 69.8906 34.1857 68.2751 35.5117C66.6918 36.8053 60.5849 36.9993 57.4506 37.8725C54.3164 38.7133 49.5665 42.0766 48.5326 49.1914C47.5632 55.7564 49.1788 59.3461 50.5682 61.1248H51.3437C50.0835 58.4082 49.922 55.433 52.927 52.9105C56.5136 49.9352 61.2311 51.6169 66.6918 49.1267C72.1848 46.6042 74.9636 41.8503 76.0299 39.1014C77.1285 36.3202 78.1625 34.9619 78.841 33.4096C79.5196 31.8896 81.3936 30.1433 80.812 29.4641Z" fill="#ED0F69"/>
<path d="M50.5679 62.289C50.2125 62.289 49.8893 62.1273 49.6632 61.8362C48.0799 59.7665 46.3997 55.8857 47.4013 49.0297C48.4676 41.6562 53.3144 37.8078 57.1595 36.7729C58.4197 36.4172 60.0676 36.1908 61.7801 35.9321C63.9127 35.641 66.8207 35.2206 67.5639 34.6061C69.0179 33.4096 69.8903 32.7304 70.7628 32.7304C71.1828 32.7304 71.5706 32.8921 71.8614 33.1832C72.3784 33.7006 72.346 34.4444 72.346 34.6708C72.3137 35.1559 72.2814 35.7057 72.1199 36.2878C72.6369 35.6734 73.1215 35.0266 73.5739 34.2827C76.0619 30.4343 78.5822 28.1382 80.3594 28.1382C80.8764 28.1382 81.361 28.3646 81.6518 28.7203C82.6212 29.8199 81.6842 31.1458 80.8764 32.31C80.4886 32.8598 80.1009 33.4096 79.907 33.8947C79.6162 34.5091 79.2931 35.1236 78.9053 35.7704C78.356 36.7729 77.7421 37.8725 77.0959 39.5218C76.2235 41.7532 73.477 47.2833 67.1762 50.1616C64.4943 51.3905 62.0063 51.6492 59.7768 51.9079C57.2887 52.199 55.3177 52.393 53.6698 53.816C51.4726 55.627 51.0526 57.8261 52.3774 60.6396C52.5389 60.9954 52.5389 61.4158 52.3127 61.7392C52.1189 62.0949 51.7311 62.289 51.3434 62.289H50.5679Z" fill="white"/>
<path d="M80.812 29.4641C80.1981 28.785 77.7101 29.9816 74.5435 34.9295C71.377 39.8452 66.6272 42.9822 65.3024 43.2085C63.9776 43.4349 60.1002 43.9523 60.1002 42.206C60.1002 40.492 64.7531 41.2681 67.7581 39.7158C70.7308 38.1959 71.1508 36.2231 71.1831 34.6385C71.2477 33.0538 69.8906 34.1857 68.2751 35.5117C66.6918 36.8053 60.5849 36.9993 57.4506 37.8725C54.3164 38.7133 49.5665 42.0766 48.5326 49.1914C47.5632 55.7564 49.1788 59.3461 50.5682 61.1248H51.3437C50.0835 58.4082 49.922 55.433 52.927 52.9105C56.5136 49.9352 61.2311 51.6169 66.6918 49.1267C72.1848 46.6042 74.9636 41.8503 76.0299 39.1014C77.1285 36.3202 78.1625 34.9619 78.841 33.4096C79.5196 31.8896 81.3936 30.1433 80.812 29.4641Z" fill="#ED0F69"/>
<path d="M23.9108 65.2966H24.7509L25.8495 70.568L29.1776 65.2966H30.0823L28.8222 71.2795H28.2406L29.4038 65.9434H29.3715L25.9464 71.2795H25.4618L24.3308 65.9434L23.1999 71.2795H22.6506L23.9108 65.2966Z" fill="#231F20"/>
<path d="M31.5364 70.9236C32.5381 70.9236 32.9905 70.018 33.1197 69.1125C32.9581 69.1125 32.7643 69.0802 32.6027 69.0802C31.8595 69.0802 30.6963 69.2095 30.6963 70.1474C30.6963 70.6648 31.0841 70.9236 31.5364 70.9236ZM33.4751 70.2444C33.3782 70.6002 33.3136 70.9882 33.3136 71.2793H32.7643C32.7966 71.0529 32.7966 70.8265 32.8612 70.6648H32.8289C32.4735 71.2146 31.9888 71.4087 31.3426 71.4087C30.664 71.4087 30.0824 70.8912 30.0824 70.1797C30.0824 68.8862 31.5364 68.6274 32.6027 68.6274C32.8289 68.6274 33.0228 68.6274 33.1843 68.6598C33.2166 68.5304 33.2166 68.4011 33.2166 68.207C33.2166 67.6249 32.8935 67.2692 32.2796 67.2692C31.7949 67.2692 31.2779 67.4955 30.9871 67.6572L31.0518 67.1075C31.3749 66.9781 31.8595 66.8164 32.3765 66.8164C33.3136 66.8164 33.7983 67.3338 33.7983 68.2394C33.7983 68.4011 33.7659 68.7245 33.7013 69.0802L33.4751 70.2444Z" fill="#231F20"/>
<path d="M34.2829 70.6327C34.606 70.7944 34.9614 70.9238 35.3492 70.9238C35.8662 70.9238 36.577 70.7298 36.577 70.0506C36.577 69.1128 34.8322 69.1451 34.8322 68.0456C34.8322 67.1724 35.7692 66.8167 36.4801 66.8167C36.8678 66.8167 37.2233 66.8813 37.5787 67.043L37.4171 67.5281C37.1263 67.3664 36.7709 67.2694 36.4478 67.2694C36.0277 67.2694 35.4138 67.3988 35.4138 68.0132C35.4138 68.757 37.1586 68.8541 37.1586 70.0183C37.1586 71.0208 36.2539 71.4089 35.4138 71.4089C34.9614 71.4089 34.5414 71.3442 34.1213 71.1502L34.2829 70.6327Z" fill="#231F20"/>
<path d="M39.7437 70.9236C40.8746 70.9236 41.5208 69.727 41.5208 68.6921C41.5208 67.8836 41.1331 67.2692 40.293 67.2692C39.0974 67.2692 38.5158 68.4657 38.5158 69.5653C38.5158 70.3414 38.9682 70.9236 39.7437 70.9236ZM40.3576 66.8164C41.4885 66.8164 42.1024 67.5602 42.1024 68.6921C42.1024 70.1474 41.1977 71.4087 39.679 71.4087C38.6128 71.4087 37.9342 70.5678 37.9342 69.5006C37.9342 68.013 38.8712 66.8164 40.3576 66.8164Z" fill="#231F20"/>
<path d="M44.5259 70.9236C45.6568 70.9236 46.303 69.727 46.303 68.6921C46.303 67.8836 45.9153 67.2692 45.0752 67.2692C43.8473 67.2692 43.298 68.4657 43.298 69.5653C43.298 70.3414 43.7504 70.9236 44.5259 70.9236ZM45.1398 66.8164C46.2384 66.8164 46.8847 67.5602 46.8847 68.6921C46.8847 70.1474 45.9476 71.4087 44.4613 71.4087C43.3627 71.4087 42.7164 70.5678 42.7164 69.5006C42.7164 68.013 43.6535 66.8164 45.1398 66.8164Z" fill="#231F20"/>
<path d="M48.1123 67.6572C48.1769 67.4309 48.2092 67.1398 48.2416 66.9134H48.7909C48.7585 67.2045 48.7262 67.4309 48.6939 67.5926C49.114 67.0428 49.4694 66.8164 50.051 66.8164C50.6649 66.8164 51.1173 67.1721 51.1496 67.7866H51.1819C51.4404 67.1721 51.9574 66.8164 52.6683 66.8164C53.4114 66.8164 53.8961 67.3015 53.8961 68.11C53.8961 68.2717 53.8315 68.5951 53.7669 68.9185L53.2499 71.3116H52.7006L53.1853 68.9832C53.2499 68.7245 53.3145 68.4657 53.3145 68.1423C53.3145 67.6572 53.0883 67.2692 52.5713 67.2692C51.6666 67.2692 51.2142 68.2717 51.0527 69.0802L50.6003 71.3116H50.051L50.5357 68.9832C50.6003 68.7245 50.6326 68.4657 50.6326 68.1423C50.6326 67.6572 50.4388 67.2692 49.9218 67.2692C49.017 67.2692 48.5647 68.2717 48.4031 69.0802L47.9508 71.3116H47.3691L48.1123 67.6572Z" fill="#231F20"/>
<path d="M57.5472 65.2966H61.7801L61.6831 65.8141H59.8414L58.7104 71.2795H58.0965L59.2597 65.8141H57.418L57.5472 65.2966Z" fill="#231F20"/>
<path d="M61.1663 67.6896C61.1986 67.4632 61.2632 67.2045 61.2955 66.9134H61.8125C61.7802 67.2045 61.7802 67.4309 61.7156 67.5926H61.7479C62.0064 67.1398 62.3941 66.8164 62.9757 66.8164C63.1373 66.8164 63.2988 66.8487 63.4281 66.8811L63.2988 67.4632C63.1696 67.3985 63.008 67.3662 62.8465 67.3662C61.9417 67.3662 61.6186 68.3364 61.4571 69.1449L61.0047 71.3116H60.4231L61.1663 67.6896Z" fill="#231F20"/>
<path d="M66.8533 70.6003C66.8209 70.8914 66.7886 71.0854 66.7563 71.2794H66.207C66.2393 71.0207 66.2716 70.7943 66.304 70.6326C65.9808 71.0854 65.4315 71.4088 64.9146 71.4088C64.1068 71.4088 63.5251 70.956 63.5251 70.1152C63.5251 69.8242 63.5898 69.5008 63.6544 69.2097L64.1391 66.9136H64.7207L64.2037 69.3391C64.1714 69.5978 64.1068 69.7918 64.1068 70.0829C64.1068 70.6003 64.4299 70.9237 64.9792 70.9237C65.9162 70.9237 66.4009 69.9859 66.6271 68.9833L67.0471 66.9136H67.6287L66.8533 70.6003Z" fill="#231F20"/>
<path d="M67.8547 70.6327C68.1778 70.7944 68.5332 70.9238 68.8887 70.9238C69.4056 70.9238 70.1165 70.7298 70.1165 70.0506C70.1165 69.1128 68.404 69.1451 68.404 68.0456C68.404 67.1724 69.3087 66.8167 70.0196 66.8167C70.4073 66.8167 70.795 66.8813 71.1505 67.043L70.9566 67.5281C70.6981 67.3664 70.3427 67.2694 69.9873 67.2694C69.5672 67.2694 68.9856 67.3988 68.9856 68.0132C68.9856 68.757 70.7304 68.8541 70.7304 70.0183C70.7304 71.0208 69.8257 71.4089 68.9533 71.4089C68.5009 71.4089 68.1132 71.3442 67.6931 71.1502L67.8547 70.6327Z" fill="#231F20"/>
<path d="M72.8633 65.9434L73.4772 65.717L73.2187 66.9136H74.3496L74.2527 67.3664H73.1218L72.6694 69.5331C72.6048 69.8242 72.5401 70.1152 72.5401 70.4063C72.5401 70.762 72.7017 70.9237 73.0248 70.9237C73.1864 70.9237 73.3479 70.8914 73.4772 70.8267L73.4449 71.2795C73.2833 71.3442 73.1218 71.4088 72.8956 71.4088C72.2816 71.4088 71.9262 71.0531 71.9262 70.568C71.9262 70.2123 72.0878 69.5008 72.1201 69.3068L72.5401 67.3664H71.6677L71.797 66.9136H72.6694L72.8633 65.9434Z" fill="#231F20"/>
</g>
</svg>
