<svg width="247" height="70" viewBox="0 0 247 70" fill="none" xmlns="http://www.w3.org/2000/svg">
<g clip-path="url(#clip0_201_278)">
<path d="M68.6521 16.8767C68.089 14.2933 66.1897 12.2334 63.4153 11.1886C61.2606 10.3789 59.0701 10.0124 55.0431 9.7854C52.0095 9.6153 49.2228 9.97929 44.7135 11.1256C39.2675 12.4963 34.927 14.4056 33.3077 16.0991L32.8699 16.5731L33.8487 20.4402C34.3936 22.5542 35.0369 25.11 35.2751 26.1003C35.9204 28.8438 35.9204 28.8438 38.1269 29.4651C42.836 30.7986 50.0161 31.0737 54.6346 30.1141C57.7001 29.4655 60.187 28.6484 62.3225 27.5801C65.5925 25.9367 67.6905 23.8358 68.5104 21.3723C68.8486 20.3358 68.9329 18.0946 68.6521 16.8767Z" fill="black"/>
<path d="M53.0941 48.6434C52.8913 47.1832 51.8804 45.4093 50.4576 44.0287C48.222 41.8783 44.5293 40.2393 39.6087 39.2165C36.8527 38.6411 35.1745 38.5242 31.5269 38.6555C27.2489 38.8068 24.6638 39.2089 21.8294 40.1503C20.1447 40.7042 20.105 40.7583 19.6804 42.52C19.5264 43.2058 18.9096 45.8416 18.3185 48.3832L17.2522 52.9822L17.7267 53.4603C19.7467 55.519 25.9142 57.7766 32.6067 58.9018C36.5173 59.5593 38.9054 59.575 43.2725 58.9534C48.7648 58.1725 52.029 55.9657 52.9052 52.4553C53.137 51.5138 53.2255 49.675 53.0941 48.6434Z" fill="black"/>
<path d="M33.0684 28.0685C32.8754 27.5607 32.071 25.0066 31.2662 22.3988C30.4747 19.7909 29.8087 17.6379 29.7817 17.6247C29.7004 17.5451 26.6064 18.0329 25.5359 18.2988C21.1332 19.3636 18.029 21.4749 16.7829 24.2378C15.773 26.4886 16.2955 29.0322 18.1377 30.7573C21.2801 33.6764 26.7103 33.3792 32.2564 29.9952C32.8963 29.5996 33.4156 29.2187 33.4147 29.1382C33.4141 29.0711 33.2481 28.5898 33.0684 28.0685Z" fill="black"/>
<path d="M16.7283 39.8269C14.6353 38.5068 11.659 37.3836 9.5094 37.0837C4.9687 36.4729 1.1283 38.7393 0.535287 42.3944C0.030941 45.5388 2.46538 48.7604 6.64164 50.4615C8.31214 51.142 11.2031 51.7831 13.4858 51.9877L14.1573 52.0613L15.3096 47.998C15.944 45.7645 16.6951 43.1274 17.0069 42.1449L17.5519 40.3416L16.7283 39.8269Z" fill="black"/>
</g>
<g clip-path="url(#clip1_201_278)">
<path d="M157.037 16.8767C156.474 14.2933 154.575 12.2334 151.8 11.1886C149.646 10.3789 147.455 10.0124 143.428 9.7854C140.394 9.6153 137.608 9.97929 133.099 11.1256C127.652 12.4963 123.312 14.4056 121.693 16.0991L121.255 16.5731L122.234 20.4402C122.779 22.5542 123.422 25.11 123.66 26.1003C124.305 28.8438 124.305 28.8438 126.512 29.4651C131.221 30.7986 138.401 31.0737 143.02 30.1141C146.085 29.4655 148.572 28.6484 150.708 27.5801C153.977 25.9367 156.076 23.8358 156.895 21.3723C157.234 20.3358 157.318 18.0946 157.037 16.8767Z" fill="black"/>
<path d="M141.479 48.6434C141.276 47.1832 140.265 45.4093 138.843 44.0287C136.607 41.8783 132.914 40.2393 127.994 39.2165C125.238 38.6411 123.56 38.5242 119.912 38.6555C115.634 38.8068 113.049 39.2089 110.214 40.1503C108.53 40.7042 108.49 40.7583 108.065 42.52C107.911 43.2058 107.295 45.8416 106.704 48.3832L105.637 52.9822L106.112 53.4603C108.132 55.519 114.299 57.7766 120.992 58.9018C124.902 59.5593 127.29 59.575 131.658 58.9534C137.15 58.1725 140.414 55.9657 141.29 52.4553C141.522 51.5138 141.61 49.675 141.479 48.6434Z" fill="black"/>
<path d="M121.453 28.0685C121.26 27.5607 120.456 25.0066 119.651 22.3988C118.86 19.7909 118.194 17.6379 118.167 17.6247C118.085 17.5451 114.991 18.0329 113.921 18.2988C109.518 19.3636 106.414 21.4749 105.168 24.2378C104.158 26.4886 104.681 29.0322 106.523 30.7573C109.665 33.6764 115.095 33.3792 120.641 29.9952C121.281 29.5996 121.801 29.2187 121.8 29.1382C121.799 29.0711 121.633 28.5898 121.453 28.0685Z" fill="black"/>
<path d="M105.113 39.8269C103.02 38.5068 100.044 37.3836 97.8944 37.0837C93.3537 36.4729 89.5133 38.7393 88.9203 42.3944C88.416 45.5388 90.8504 48.7604 95.0266 50.4615C96.6972 51.142 99.5881 51.7831 101.871 51.9877L102.542 52.0613L103.695 47.998C104.329 45.7645 105.08 43.1274 105.392 42.1449L105.937 40.3416L105.113 39.8269Z" fill="black"/>
</g>
<g clip-path="url(#clip2_201_278)">
<path d="M245.422 16.8767C244.859 14.2933 242.96 12.2334 240.185 11.1886C238.03 10.3789 235.84 10.0124 231.813 9.7854C228.779 9.6153 225.993 9.97929 221.483 11.1256C216.037 12.4963 211.697 14.4056 210.078 16.0991L209.64 16.5731L210.619 20.4402C211.163 22.5542 211.807 25.11 212.045 26.1003C212.69 28.8438 212.69 28.8438 214.897 29.4651C219.606 30.7986 226.786 31.0737 231.405 30.1141C234.47 29.4655 236.957 28.6484 239.092 27.5801C242.362 25.9367 244.46 23.8358 245.28 21.3723C245.618 20.3358 245.703 18.0946 245.422 16.8767Z" fill="black"/>
<path d="M229.864 48.6434C229.661 47.1832 228.65 45.4093 227.227 44.0287C224.992 41.8783 221.299 40.2393 216.379 39.2165C213.623 38.6411 211.944 38.5242 208.297 38.6555C204.019 38.8068 201.434 39.2089 198.599 40.1503C196.915 40.7042 196.875 40.7583 196.45 42.52C196.296 43.2058 195.679 45.8416 195.088 48.3832L194.022 52.9822L194.497 53.4603C196.517 55.519 202.684 57.7766 209.377 58.9018C213.287 59.5593 215.675 59.575 220.042 58.9534C225.535 58.1725 228.799 55.9657 229.675 52.4553C229.907 51.5138 229.995 49.675 229.864 48.6434Z" fill="black"/>
<path d="M209.838 28.0685C209.645 27.5607 208.841 25.0066 208.036 22.3988C207.245 19.7909 206.579 17.6379 206.552 17.6247C206.47 17.5451 203.376 18.0329 202.306 18.2988C197.903 19.3636 194.799 21.4749 193.553 24.2378C192.543 26.4886 193.065 29.0322 194.908 30.7573C198.05 33.6764 203.48 33.3792 209.026 29.9952C209.666 29.5996 210.185 29.2187 210.185 29.1382C210.184 29.0711 210.018 28.5898 209.838 28.0685Z" fill="black"/>
<path d="M193.498 39.8269C191.405 38.5068 188.429 37.3836 186.279 37.0837C181.739 36.4729 177.898 38.7393 177.305 42.3944C176.801 45.5388 179.235 48.7604 183.412 50.4615C185.082 51.142 187.973 51.7831 190.256 51.9877L190.927 52.0613L192.079 47.998C192.714 45.7645 193.465 43.1274 193.777 42.1449L194.322 40.3416L193.498 39.8269Z" fill="black"/>
</g>
<defs>
<clipPath id="clip0_201_278">
<rect width="68.6837" height="68.6837" fill="white" transform="translate(68.6801) rotate(89.412)"/>
</clipPath>
<clipPath id="clip1_201_278">
<rect width="68.6837" height="68.6837" fill="white" transform="translate(157.065) rotate(89.412)"/>
</clipPath>
<clipPath id="clip2_201_278">
<rect width="68.6837" height="68.6837" fill="white" transform="translate(245.45) rotate(89.412)"/>
</clipPath>
</defs>
</svg>
