<svg width="78" height="78" viewBox="0 0 78 78" fill="none" xmlns="http://www.w3.org/2000/svg">
<path d="M45.5356 3.70361C43.2657 3.74932 41.6356 4.19111 40.554 4.9833L25.7309 12.9204L17.4891 24.1314C15.7524 26.8126 16.9864 31.9923 22.4098 28.6712L28.3512 20.8408C35.8922 14.3372 51.279 17.3216 43.9817 30.3775C40.4016 37.9337 42.0774 41.6204 46.6934 43.1744L48.7957 36.1056C52.4368 27.9095 59.2313 26.4318 58.9571 19.8201L75.2883 20.9931L75.136 3.91689L45.5356 3.70361ZM37.2938 19.4544C34.643 19.4087 32.0379 20.5056 30.1489 22.09L24.1922 29.9204C25.8223 31.2154 27.4676 30.5146 29.0977 28.9454C31.0172 29.9205 32.5102 28.4122 33.729 25.3958C34.2317 23.3392 34.9782 21.8919 37.2938 19.4544ZM25.1672 34.0794C25.1063 34.0794 25.0301 34.0794 24.9692 34.0947C24.4665 34.2013 23.8723 34.7345 23.4762 35.9533C23.0649 37.172 22.9735 38.9087 23.3391 40.7673C23.7047 42.6107 24.4665 44.1798 25.3196 45.1548C26.1422 46.1146 26.904 46.3888 27.4067 46.2822C27.9247 46.1908 28.5036 45.6423 28.8997 44.4388C29.311 43.2201 29.4176 41.4681 29.052 39.6247C28.6711 37.7662 27.9094 36.197 27.0715 35.2372C26.3403 34.3841 25.67 34.0794 25.1672 34.0794ZM37.7508 50.3497C36.5473 50.365 35.0391 50.7458 33.5614 51.4619C31.8704 52.2997 30.545 53.4576 29.829 54.524C29.1129 55.5751 29.052 56.3673 29.2805 56.8396C29.509 57.2966 30.1793 57.7384 31.459 57.7994C32.7387 57.8755 34.4602 57.5251 36.1512 56.6872C37.8422 55.8494 39.1676 54.7068 39.8836 53.6404C40.5997 52.5892 40.6606 51.7818 40.4321 51.3247C40.2036 50.8525 39.5333 50.4259 38.2536 50.365C38.086 50.3497 37.9336 50.3497 37.7508 50.3497ZM22.8821 64.9138C22.1661 64.929 21.511 65.0357 20.9321 65.2033C19.6372 65.5841 18.8907 66.2697 18.6469 67.0771C18.3879 67.8997 18.6469 68.8747 19.5153 69.9259C20.3989 70.9619 21.8766 71.9521 23.7047 72.5005C25.5176 73.049 27.2848 73.0337 28.595 72.6376C29.9051 72.2568 30.6516 71.5712 30.8954 70.7638C31.1391 69.9412 30.8954 68.9661 30.0118 67.915C29.1434 66.879 27.6657 65.8888 25.8375 65.3404C24.8016 65.0357 23.7961 64.8986 22.8821 64.9138Z" fill="black"/>
</svg>
