<svg width="51" height="48" viewBox="0 0 51 48" fill="none" xmlns="http://www.w3.org/2000/svg">
<path d="M25.473 3.3708e-06C18.7146 0.00674581 12.2356 2.53829 7.45922 7.03843C2.68288 11.5386 -3.79683e-06 17.6392 0 24C0 30.3652 2.6866 36.4697 7.46878 40.9706C12.251 45.4714 18.737 48 25.5 48C31.2862 47.993 36.8978 46.1341 41.4132 42.7287C45.9285 39.3232 49.079 34.5737 50.3472 29.2603C49.4843 29.9021 48.4663 30.2976 47.3974 30.4747C47.09 31.4001 46.7165 32.3049 46.2794 33.1829H39.3159C39.7114 31.5216 39.9906 29.8376 40.1518 28.1419C39.4906 27.4351 39.0178 26.5902 38.7728 25.6771C38.7799 24.3202 38.0006 23.4662 36.9429 22.8H26.775V20.8258C25.847 20.5499 24.9821 20.113 24.225 19.5374V22.8H13.7022C13.8103 19.9512 14.2341 17.2541 14.9073 14.8176H21.5954C21.5324 14.0038 21.6495 13.1866 21.9392 12.4176H15.6825C16.1864 11.0621 16.7688 9.8112 17.4206 8.6976C19.3239 5.4432 21.7112 3.40848 24.225 2.82144V9.30912C24.9761 8.69461 25.8403 8.2147 26.775 7.89312V2.72736C29.275 3.12768 31.6715 4.96128 33.6223 7.99968C34.3755 7.73904 35.0916 7.2672 35.8005 6.76416C35.0625 5.61888 34.2439 4.58208 33.3494 3.6936C34.8059 4.19211 36.2046 4.82916 37.5238 5.59488C37.8644 5.3904 38.2072 5.20368 38.5591 5.07264C38.5352 4.54349 38.5853 4.01369 38.708 3.4968C34.7274 1.21738 30.1594 0.00799777 25.5 3.3708e-06C25.491 -1.1236e-06 25.482 -1.1236e-06 25.473 3.3708e-06ZM18.3498 3.47136C17.1646 4.60032 16.1007 5.97696 15.1863 7.53936C14.3295 9.00336 13.5925 10.6435 12.9872 12.4171H6.1251C8.94795 8.23824 13.2523 5.03952 18.3498 3.47136ZM47.2688 11.5574C46.308 11.7898 45.3048 11.833 44.319 11.6352C44.5097 11.892 44.6964 12.1522 44.8749 12.4176H39.0905C38.0868 13.116 37.102 13.9003 36.0499 14.292C36.1243 14.4883 36.2258 14.6602 36.3436 14.8171H36.5644C36.5951 14.9285 36.6226 15.0432 36.6522 15.1555C37.4202 15.8554 38.6213 16.1621 39.6148 16.6651C39.4922 16.0459 39.3527 15.4297 39.1966 14.8171H46.2794C46.6407 15.5457 46.9582 16.2928 47.2306 17.0549C48.3796 17.2824 49.4256 17.8118 50.3049 18.5419C49.6905 16.0778 48.6658 13.7207 47.2688 11.5579V11.5574ZM4.72056 14.8176H12.2726C11.6377 17.2954 11.2486 19.9824 11.1491 22.8005H2.58672C2.74512 20.0352 3.46968 17.3242 4.72056 14.8176ZM2.58672 25.2H11.1353C11.2011 28.0109 11.5535 30.6979 12.1523 33.1824H4.72056C3.46968 30.6758 2.74512 27.9653 2.58672 25.2ZM13.6853 25.2H24.225V33.1824H14.7798C14.1448 30.7344 13.7567 28.0392 13.6853 25.2ZM26.775 25.2H37.7869C37.7155 28.0392 37.3269 30.7344 36.6919 33.1824H26.775V25.2ZM6.1251 35.5824H12.8245C13.4579 37.5432 14.2525 39.3456 15.1863 40.9416C15.9197 42.1944 16.7509 43.3267 17.6618 44.3098C12.8642 42.673 8.82045 39.5722 6.1251 35.5824ZM15.506 35.5824H24.225V45.5654C24.0679 45.5573 23.9129 45.5424 23.7568 45.5318C21.4159 44.8118 19.2056 42.8342 17.4206 39.7838C16.6923 38.5387 16.0477 37.1256 15.506 35.5824ZM26.775 35.5824H35.9657C35.4251 37.1261 34.78 38.5387 34.0517 39.7838C32.3034 42.7718 30.1471 44.7317 27.8598 45.4877C27.5007 45.5218 27.1386 45.5467 26.775 45.5654V35.5824ZM38.6452 35.5824H44.8749C42.2961 39.4013 38.5097 42.3629 34.0486 44.0501C34.8667 43.1285 35.6164 42.085 36.2855 40.9416C37.2193 39.3456 38.0134 37.5427 38.6452 35.5824Z" fill="black"/>
<path d="M45.8022 0C44.4236 0 43.1015 0.515423 42.1267 1.43288C41.1519 2.35034 40.6042 3.59468 40.6042 4.89216C40.6056 5.30393 40.6621 5.71389 40.7725 6.11232L32.5116 10.8379C31.5447 9.96175 30.2552 9.47154 28.913 9.46992C28.2303 9.46992 27.5543 9.59649 26.9236 9.84241C26.2929 10.0883 25.7198 10.4488 25.2372 10.9031C24.7545 11.3575 24.3716 11.8969 24.1105 12.4906C23.8493 13.0843 23.715 13.7205 23.7151 14.363C23.7151 15.6605 24.2627 16.9049 25.2375 17.8223C26.2123 18.7398 27.5344 19.2552 28.913 19.2552C30.1676 19.2531 31.3791 18.824 32.3239 18.047L40.7113 22.8461C40.6402 23.1706 40.6044 23.5011 40.6042 23.8325C40.6042 25.13 41.1519 26.3743 42.1267 27.2918C43.1015 28.2092 44.4236 28.7246 45.8022 28.7246C46.4848 28.7246 47.1608 28.5981 47.7914 28.3522C48.4221 28.1063 48.9952 27.7459 49.4778 27.2916C49.9605 26.8373 50.3434 26.2979 50.6046 25.7043C50.8658 25.1107 51.0002 24.4745 51.0001 23.832C51.0002 23.1895 50.8658 22.5533 50.6046 21.9597C50.3434 21.3661 49.9605 20.8267 49.4778 20.3724C48.9952 19.9181 48.4221 19.5577 47.7914 19.3118C47.1608 19.0659 46.4848 18.9394 45.8022 18.9394C45.1042 18.9403 44.4136 19.0735 43.7715 19.331C43.1294 19.5886 42.549 19.9652 42.0649 20.4384L33.8921 15.7642C34.0371 15.3094 34.111 14.8373 34.1114 14.3626C34.1097 13.9681 34.0573 13.5754 33.9554 13.1928L42.2429 8.45088C43.2057 9.30564 44.4786 9.78254 45.8022 9.78432C47.1807 9.78432 48.5029 9.2689 49.4777 8.35144C50.4524 7.43398 51.0001 6.18964 51.0001 4.89216C51.0001 3.59468 50.4524 2.35034 49.4777 1.43288C48.5029 0.515423 47.1807 0 45.8022 0Z" fill="black"/>
</svg>
