<svg width="42" height="42" viewBox="0 0 42 42" fill="none" xmlns="http://www.w3.org/2000/svg">
<path d="M29.7495 31.5H12.2495V10.5H29.7495C29.7495 11.4625 30.537 12.25 31.4995 12.25C32.462 12.25 33.2495 11.4625 33.2495 10.5V5.25C33.2495 3.325 31.6745 1.75 29.7495 1.75L12.2495 1.7675C10.3245 1.7675 8.74951 3.325 8.74951 5.25V36.75C8.74951 38.675 10.3245 40.25 12.2495 40.25H29.7495C31.6745 40.25 33.2495 38.675 33.2495 36.75V31.5C33.2495 30.5375 32.462 29.75 31.4995 29.75C30.537 29.75 29.7495 30.5375 29.7495 31.5Z" fill="#797979"/>
<path d="M37.887 20.3874L33.0045 15.5049C32.8828 15.3799 32.7266 15.294 32.5558 15.2583C32.385 15.2226 32.2074 15.2386 32.0458 15.3044C31.8841 15.3702 31.7458 15.4827 31.6485 15.6275C31.5512 15.7724 31.4993 15.943 31.4995 16.1174V19.2499H24.4995C23.537 19.2499 22.7495 20.0374 22.7495 20.9999C22.7495 21.9624 23.537 22.7499 24.4995 22.7499H31.4995V25.8824C31.4995 26.6699 32.4445 27.0549 32.987 26.4949L37.8695 21.6124C38.2195 21.2799 38.2195 20.7199 37.887 20.3874Z" fill="#797979"/>
</svg>
