<svg width="65" height="65" viewBox="0 0 65 65" fill="none" xmlns="http://www.w3.org/2000/svg">
<mask id="mask0_201_407" style="mask-type:luminance" maskUnits="userSpaceOnUse" x="0" y="0" width="65" height="65">
<path d="M0 0H65V65H0V0Z" fill="white"/>
</mask>
<g mask="url(#mask0_201_407)">
<path d="M26.8125 45.9607L46.9517 25.8215C49.8438 22.9285 51.858 19.2759 52.761 15.2861L53.6223 11.4917L49.8252 12.3502C45.8351 13.2541 42.1824 15.2691 39.2898 18.1623L24.895 32.5544M26.8125 45.9607L32.5569 55.5346C35.7473 52.3442 40.216 47.8755 32.5569 40.2136L26.8125 45.9607ZM26.8125 45.9607L19.1506 38.2988M24.895 32.5544C17.2358 24.8925 12.7671 29.3613 9.57666 32.5544L19.1506 38.2988M24.895 32.5544L19.1506 38.2988M13.4062 44.0459C13.4062 44.0459 8.79395 50.925 11.4915 53.6225C14.1862 56.32 21.0654 51.7077 21.0654 51.7077" stroke="black" stroke-width="3" stroke-linecap="round" stroke-linejoin="round"/>
</g>
</svg>
