<svg width="43" height="42" viewBox="0 0 43 42" fill="none" xmlns="http://www.w3.org/2000/svg">
<path d="M21.4917 7C23.3482 7 25.1287 7.7375 26.4414 9.05025C27.7542 10.363 28.4917 12.1435 28.4917 14C28.4917 15.8565 27.7542 17.637 26.4414 18.9497C25.1287 20.2625 23.3482 21 21.4917 21C19.6352 21 17.8547 20.2625 16.542 18.9497C15.2292 17.637 14.4917 15.8565 14.4917 14C14.4917 12.1435 15.2292 10.363 16.542 9.05025C17.8547 7.7375 19.6352 7 21.4917 7ZM21.4917 24.5C29.2267 24.5 35.4917 27.6325 35.4917 31.5V35H7.4917V31.5C7.4917 27.6325 13.7567 24.5 21.4917 24.5Z" fill="black"/>
</svg>
