<svg width="17" height="12" viewBox="0 0 17 12" fill="none" xmlns="http://www.w3.org/2000/svg">
<path d="M15.887 5.38745L11.0045 0.504947C10.8828 0.379912 10.7266 0.294038 10.5558 0.258316C10.385 0.222593 10.2074 0.238648 10.0458 0.304423C9.88415 0.370199 9.74583 0.482703 9.64852 0.62754C9.5512 0.772377 9.49932 0.942956 9.49951 1.11745V4.24995H2.49951C1.53701 4.24995 0.749512 5.03745 0.749512 5.99995C0.749512 6.96245 1.53701 7.74995 2.49951 7.74995H9.49951V10.8824C9.49951 11.6699 10.4445 12.0549 10.987 11.4949L15.8695 6.61245C16.2195 6.27995 16.2195 5.71995 15.887 5.38745Z" fill="#797979"/>
</svg>
